<mxfile host="app.diagrams.net" agent="Mozilla/5.0 (Windows NT 10.0; Win64; x64) AppleWebKit/537.36 (KHTML, like Gecko) Chrome/134.0.0.0 Safari/537.36" version="26.1.3" pages="2">
  <diagram name="Page-1" id="0shNVlU10GyerxxKCPHh">
    <mxGraphModel dx="1434" dy="772" grid="1" gridSize="10" guides="1" tooltips="1" connect="1" arrows="1" fold="1" page="1" pageScale="1" pageWidth="850" pageHeight="1100" math="0" shadow="0">
      <root>
        <mxCell id="0" />
        <mxCell id="1" parent="0" />
        <mxCell id="o4qOBo-bFjxpsDCCm260-1" value="" style="rounded=0;whiteSpace=wrap;html=1;fillColor=none;dashed=1;strokeColor=#999999;" vertex="1" parent="1">
          <mxGeometry x="50" y="125" width="140" height="515" as="geometry" />
        </mxCell>
        <mxCell id="o4qOBo-bFjxpsDCCm260-2" value="&lt;font style=&quot;font-size: 36px;&quot; face=&quot;Garamond&quot;&gt;&lt;b style=&quot;&quot;&gt;High Level Architecture&lt;/b&gt;&lt;/font&gt;" style="text;html=1;align=center;verticalAlign=middle;resizable=0;points=[];autosize=1;strokeColor=none;fillColor=none;" vertex="1" parent="1">
          <mxGeometry x="10" width="390" height="60" as="geometry" />
        </mxCell>
        <mxCell id="o4qOBo-bFjxpsDCCm260-3" value="&lt;p&gt;&lt;font style=&quot;font-size: 24px;&quot;&gt;Sources&lt;/font&gt;&lt;/p&gt;" style="rounded=0;whiteSpace=wrap;html=1;strokeColor=none;" vertex="1" parent="1">
          <mxGeometry x="66.25" y="115" width="107.5" height="10" as="geometry" />
        </mxCell>
        <mxCell id="o4qOBo-bFjxpsDCCm260-7" value="" style="rounded=0;whiteSpace=wrap;html=1;fillColor=none;dashed=1;strokeColor=#999999;" vertex="1" parent="1">
          <mxGeometry x="210" y="130" width="440" height="510" as="geometry" />
        </mxCell>
        <mxCell id="o4qOBo-bFjxpsDCCm260-8" value="&lt;p&gt;&lt;font style=&quot;font-size: 24px;&quot;&gt;Data Warehouse&lt;/font&gt;&lt;/p&gt;" style="rounded=0;whiteSpace=wrap;html=1;strokeColor=none;" vertex="1" parent="1">
          <mxGeometry x="325" y="100" width="210" height="40" as="geometry" />
        </mxCell>
        <mxCell id="o4qOBo-bFjxpsDCCm260-9" value="" style="rounded=0;whiteSpace=wrap;html=1;fillColor=none;dashed=1;strokeColor=light-dark(#e6cb79, #543300);" vertex="1" parent="1">
          <mxGeometry x="670" y="125" width="140" height="515" as="geometry" />
        </mxCell>
        <mxCell id="o4qOBo-bFjxpsDCCm260-10" value="&lt;p&gt;&lt;font style=&quot;font-size: 24px;&quot;&gt;Consume&lt;/font&gt;&lt;/p&gt;" style="rounded=0;whiteSpace=wrap;html=1;strokeColor=none;" vertex="1" parent="1">
          <mxGeometry x="686.25" y="115" width="107.5" height="10" as="geometry" />
        </mxCell>
        <mxCell id="o4qOBo-bFjxpsDCCm260-12" value="&lt;font style=&quot;font-size: 20px;&quot;&gt;&lt;b&gt;Bronze Layer&lt;/b&gt;&lt;/font&gt;" style="rounded=0;whiteSpace=wrap;html=1;fillColor=#ffe6cc;strokeColor=#d79b00;" vertex="1" parent="1">
          <mxGeometry x="220" y="160" width="130" height="30" as="geometry" />
        </mxCell>
        <mxCell id="o4qOBo-bFjxpsDCCm260-13" value="" style="rounded=0;whiteSpace=wrap;html=1;fillColor=none;strokeColor=light-dark(#e6cb79, #543300);" vertex="1" parent="1">
          <mxGeometry x="220" y="200" width="130" height="430" as="geometry" />
        </mxCell>
        <mxCell id="o4qOBo-bFjxpsDCCm260-14" value="&lt;b&gt;&lt;font style=&quot;font-size: 20px;&quot;&gt;Silver&lt;/font&gt;&lt;span style=&quot;font-size: 20px; background-color: transparent; color: light-dark(rgb(0, 0, 0), rgb(255, 255, 255));&quot;&gt;&amp;nbsp;Layer&lt;/span&gt;&lt;/b&gt;" style="rounded=0;whiteSpace=wrap;html=1;fillColor=#f5f5f5;strokeColor=#666666;fontColor=#333333;" vertex="1" parent="1">
          <mxGeometry x="365" y="160" width="130" height="30" as="geometry" />
        </mxCell>
        <mxCell id="o4qOBo-bFjxpsDCCm260-15" value="" style="rounded=0;whiteSpace=wrap;html=1;fillColor=none;strokeColor=light-dark(#b1b0af, #543300);" vertex="1" parent="1">
          <mxGeometry x="365" y="200" width="130" height="430" as="geometry" />
        </mxCell>
        <mxCell id="o4qOBo-bFjxpsDCCm260-18" value="&lt;font style=&quot;font-size: 20px;&quot;&gt;&lt;b&gt;Gold Layer&lt;/b&gt;&lt;/font&gt;" style="rounded=0;whiteSpace=wrap;html=1;fillColor=#fff2cc;strokeColor=#d6b656;" vertex="1" parent="1">
          <mxGeometry x="510" y="160" width="130" height="30" as="geometry" />
        </mxCell>
        <mxCell id="o4qOBo-bFjxpsDCCm260-19" value="" style="rounded=0;whiteSpace=wrap;html=1;fillColor=none;strokeColor=#FFD966;" vertex="1" parent="1">
          <mxGeometry x="510" y="200" width="130" height="430" as="geometry" />
        </mxCell>
        <mxCell id="o4qOBo-bFjxpsDCCm260-20" value="&lt;b&gt;CRM&lt;/b&gt;" style="image;aspect=fixed;html=1;points=[];align=center;fontSize=12;image=img/lib/azure2/general/Folder_Blank.svg;" vertex="1" parent="1">
          <mxGeometry x="90" y="208.12" width="51.61" height="41.88" as="geometry" />
        </mxCell>
        <mxCell id="o4qOBo-bFjxpsDCCm260-21" value="" style="image;aspect=fixed;html=1;points=[];align=center;fontSize=12;image=img/lib/azure2/general/File.svg;" vertex="1" parent="1">
          <mxGeometry x="130" y="230" width="24.35" height="30" as="geometry" />
        </mxCell>
        <mxCell id="o4qOBo-bFjxpsDCCm260-24" value="&lt;b&gt;ERP&lt;/b&gt;" style="image;aspect=fixed;html=1;points=[];align=center;fontSize=12;image=img/lib/azure2/general/Folder_Blank.svg;" vertex="1" parent="1">
          <mxGeometry x="87.83" y="360" width="51.61" height="41.88" as="geometry" />
        </mxCell>
        <mxCell id="o4qOBo-bFjxpsDCCm260-25" value="" style="image;aspect=fixed;html=1;points=[];align=center;fontSize=12;image=img/lib/azure2/general/File.svg;" vertex="1" parent="1">
          <mxGeometry x="127.83" y="381.88" width="24.35" height="30" as="geometry" />
        </mxCell>
        <mxCell id="o4qOBo-bFjxpsDCCm260-28" value="" style="endArrow=none;html=1;rounded=0;entryX=0.929;entryY=0.747;entryDx=0;entryDy=0;entryPerimeter=0;exitX=0.071;exitY=0.747;exitDx=0;exitDy=0;exitPerimeter=0;" edge="1" parent="1">
          <mxGeometry width="50" height="50" relative="1" as="geometry">
            <mxPoint x="59.940000000000055" y="440.00499999999994" as="sourcePoint" />
            <mxPoint x="180.05999999999995" y="440.00499999999994" as="targetPoint" />
          </mxGeometry>
        </mxCell>
        <mxCell id="o4qOBo-bFjxpsDCCm260-32" value="&lt;b&gt;Object Type: &lt;/b&gt;CSV Files&lt;div&gt;&lt;b&gt;Interface: &lt;/b&gt;Files in Folder&lt;/div&gt;" style="text;html=1;align=center;verticalAlign=middle;whiteSpace=wrap;rounded=0;" vertex="1" parent="1">
          <mxGeometry x="50" y="460" width="140" height="30" as="geometry" />
        </mxCell>
        <mxCell id="o4qOBo-bFjxpsDCCm260-33" value="" style="html=1;verticalLabelPosition=bottom;align=center;labelBackgroundColor=#ffffff;verticalAlign=top;strokeWidth=2;strokeColor=#d79b00;shadow=0;dashed=0;shape=mxgraph.ios7.icons.data;fillColor=#ffe6cc;" vertex="1" parent="1">
          <mxGeometry x="260" y="260" width="50" height="60" as="geometry" />
        </mxCell>
        <mxCell id="o4qOBo-bFjxpsDCCm260-34" value="" style="html=1;verticalLabelPosition=bottom;align=center;labelBackgroundColor=#ffffff;verticalAlign=top;strokeWidth=2;strokeColor=#666666;shadow=0;dashed=0;shape=mxgraph.ios7.icons.data;fillColor=#f5f5f5;fontColor=#333333;" vertex="1" parent="1">
          <mxGeometry x="405" y="260" width="50" height="60" as="geometry" />
        </mxCell>
        <mxCell id="o4qOBo-bFjxpsDCCm260-35" value="" style="html=1;verticalLabelPosition=bottom;align=center;labelBackgroundColor=#ffffff;verticalAlign=top;strokeWidth=2;strokeColor=#d6b656;shadow=0;dashed=0;shape=mxgraph.ios7.icons.data;fillColor=#fff2cc;" vertex="1" parent="1">
          <mxGeometry x="550" y="260" width="50" height="60" as="geometry" />
        </mxCell>
        <mxCell id="o4qOBo-bFjxpsDCCm260-36" value="" style="shape=singleArrow;whiteSpace=wrap;html=1;fillColor=#dae8fc;strokeColor=#6c8ebf;" vertex="1" parent="1">
          <mxGeometry x="180" y="330" width="63.75" height="51.88" as="geometry" />
        </mxCell>
        <mxCell id="o4qOBo-bFjxpsDCCm260-38" value="" style="shape=singleArrow;whiteSpace=wrap;html=1;fillColor=#dae8fc;strokeColor=#6c8ebf;" vertex="1" parent="1">
          <mxGeometry x="325" y="330" width="63.75" height="51.88" as="geometry" />
        </mxCell>
        <mxCell id="o4qOBo-bFjxpsDCCm260-40" value="" style="shape=singleArrow;whiteSpace=wrap;html=1;fillColor=#dae8fc;strokeColor=#6c8ebf;" vertex="1" parent="1">
          <mxGeometry x="471.25" y="330" width="63.75" height="51.88" as="geometry" />
        </mxCell>
        <mxCell id="o4qOBo-bFjxpsDCCm260-41" value="" style="shape=singleArrow;whiteSpace=wrap;html=1;fillColor=#dae8fc;strokeColor=#6c8ebf;" vertex="1" parent="1">
          <mxGeometry x="622.5" y="330" width="63.75" height="51.88" as="geometry" />
        </mxCell>
        <mxCell id="o4qOBo-bFjxpsDCCm260-42" value="Raw Data" style="text;html=1;align=center;verticalAlign=middle;whiteSpace=wrap;rounded=0;" vertex="1" parent="1">
          <mxGeometry x="255" y="340.94" width="60" height="30" as="geometry" />
        </mxCell>
        <mxCell id="o4qOBo-bFjxpsDCCm260-43" value="Cleansed, Standardized Data" style="text;html=1;align=center;verticalAlign=middle;whiteSpace=wrap;rounded=0;" vertex="1" parent="1">
          <mxGeometry x="395" y="340.94" width="65" height="29.06" as="geometry" />
        </mxCell>
        <mxCell id="o4qOBo-bFjxpsDCCm260-44" value="Business-Ready Data" style="text;html=1;align=center;verticalAlign=middle;whiteSpace=wrap;rounded=0;" vertex="1" parent="1">
          <mxGeometry x="537.5" y="340.94" width="75" height="30" as="geometry" />
        </mxCell>
        <mxCell id="o4qOBo-bFjxpsDCCm260-47" value="" style="endArrow=none;html=1;rounded=0;entryX=0.929;entryY=0.747;entryDx=0;entryDy=0;entryPerimeter=0;exitX=0.071;exitY=0.747;exitDx=0;exitDy=0;exitPerimeter=0;fillColor=#ffe6cc;strokeColor=#d79b00;" edge="1" parent="1">
          <mxGeometry width="50" height="50" relative="1" as="geometry">
            <mxPoint x="225" y="440" as="sourcePoint" />
            <mxPoint x="345" y="440" as="targetPoint" />
          </mxGeometry>
        </mxCell>
        <mxCell id="o4qOBo-bFjxpsDCCm260-48" value="" style="endArrow=none;html=1;rounded=0;entryX=0.929;entryY=0.747;entryDx=0;entryDy=0;entryPerimeter=0;exitX=0.071;exitY=0.747;exitDx=0;exitDy=0;exitPerimeter=0;fillColor=#f5f5f5;strokeColor=#666666;" edge="1" parent="1">
          <mxGeometry width="50" height="50" relative="1" as="geometry">
            <mxPoint x="370" y="440" as="sourcePoint" />
            <mxPoint x="490" y="440" as="targetPoint" />
          </mxGeometry>
        </mxCell>
        <mxCell id="o4qOBo-bFjxpsDCCm260-49" value="" style="endArrow=none;html=1;rounded=0;entryX=0.929;entryY=0.747;entryDx=0;entryDy=0;entryPerimeter=0;exitX=0.071;exitY=0.747;exitDx=0;exitDy=0;exitPerimeter=0;fillColor=#fff2cc;strokeColor=#d6b656;" edge="1" parent="1">
          <mxGeometry width="50" height="50" relative="1" as="geometry">
            <mxPoint x="520" y="440" as="sourcePoint" />
            <mxPoint x="640" y="440" as="targetPoint" />
          </mxGeometry>
        </mxCell>
        <mxCell id="o4qOBo-bFjxpsDCCm260-50" value="&lt;b&gt;Object Type: &lt;/b&gt;Table&lt;br&gt;&lt;div&gt;&lt;b&gt;Load:&amp;nbsp;&lt;/b&gt;&lt;/div&gt;&lt;div&gt;&lt;ul&gt;&lt;li style=&quot;text-align: left;&quot;&gt;Batch Processing&lt;/li&gt;&lt;li style=&quot;text-align: left;&quot;&gt;Full Load (Trunc &amp;amp; Insert)&lt;/li&gt;&lt;/ul&gt;&lt;div&gt;&lt;b&gt;No Transformations&lt;/b&gt;&lt;/div&gt;&lt;/div&gt;&lt;div&gt;&lt;b&gt;Data Model:&lt;/b&gt; None (As is)&lt;/div&gt;&lt;div&gt;&lt;b&gt;&lt;br&gt;&lt;/b&gt;&lt;/div&gt;" style="text;html=1;align=center;verticalAlign=middle;whiteSpace=wrap;rounded=0;" vertex="1" parent="1">
          <mxGeometry x="220" y="450" width="130" height="170" as="geometry" />
        </mxCell>
      </root>
    </mxGraphModel>
  </diagram>
  <diagram id="pFTUEX0-XheGXtUrTBoE" name="Page-2">
    <mxGraphModel grid="1" page="1" gridSize="10" guides="1" tooltips="1" connect="1" arrows="1" fold="1" pageScale="1" pageWidth="850" pageHeight="1100" math="0" shadow="0">
      <root>
        <mxCell id="0" />
        <mxCell id="1" parent="0" />
      </root>
    </mxGraphModel>
  </diagram>
</mxfile>
